<svg width="118.146" height="28.859" viewBox="0 0 118.146 28.859" xmlns="http://www.w3.org/2000/svg"><g id="svgGroup" stroke-linecap="round" fill-rule="evenodd" font-size="9pt" stroke="#000" stroke-width="0.25mm" fill="white" style="stroke:#000;stroke-width:0.25mm;fill:#000"><path d="M 29.537 26.029 L 31.45 22.84 Q 32.885 24.036 34.678 24.793 A 9.307 9.307 0 0 0 36.819 25.395 A 12.802 12.802 0 0 0 38.864 25.55 A 11.153 11.153 0 0 0 40.676 25.412 Q 41.642 25.253 42.424 24.91 A 5.461 5.461 0 0 0 43.408 24.355 Q 45.021 23.202 45.08 21.272 A 4.83 4.83 0 0 0 45.082 21.126 A 4.759 4.759 0 0 0 44.947 19.973 A 3.913 3.913 0 0 0 44.604 19.073 A 3.227 3.227 0 0 0 44.125 18.413 Q 43.619 17.863 42.764 17.328 A 10.438 10.438 0 0 0 42.75 17.319 A 12.797 12.797 0 0 0 41.764 16.77 Q 40.712 16.238 39.209 15.657 A 47.267 47.267 0 0 0 38.704 15.466 Q 36.673 14.676 35.221 13.876 A 15.743 15.743 0 0 1 34.12 13.214 Q 32.534 12.162 31.784 10.837 A 5.302 5.302 0 0 1 31.669 10.623 A 6.643 6.643 0 0 1 31.063 8.761 A 9.139 9.139 0 0 1 30.932 7.175 A 6.277 6.277 0 0 1 32.028 3.568 A 6.847 6.847 0 0 1 33.803 1.799 A 9.321 9.321 0 0 1 35.256 0.977 A 10.187 10.187 0 0 1 37.608 0.245 Q 38.658 0.046 39.857 0.009 A 18.028 18.028 0 0 1 40.418 0 A 21.084 21.084 0 0 1 42.765 0.125 A 15.72 15.72 0 0 1 44.863 0.498 Q 46.836 0.997 48.709 1.913 L 47.314 5.142 Q 45.959 4.345 44.145 3.807 Q 42.332 3.269 40.339 3.269 Q 37.708 3.269 36.193 4.305 A 3.947 3.947 0 0 0 35.331 5.088 A 2.933 2.933 0 0 0 34.678 6.976 Q 34.678 8.012 35.117 8.809 A 2.755 2.755 0 0 0 35.543 9.377 Q 35.991 9.847 36.748 10.303 A 9.368 9.368 0 0 0 36.851 10.364 A 13.155 13.155 0 0 0 37.734 10.831 Q 38.639 11.271 39.918 11.768 A 51.823 51.823 0 0 0 40.737 12.078 A 32.378 32.378 0 0 1 42.722 12.887 Q 43.691 13.322 44.489 13.774 A 14.152 14.152 0 0 1 45.66 14.509 A 10.381 10.381 0 0 1 46.872 15.497 Q 47.501 16.1 47.923 16.747 A 5.672 5.672 0 0 1 48.231 17.28 A 7.007 7.007 0 0 1 48.925 19.616 A 8.831 8.831 0 0 1 48.988 20.688 A 8.654 8.654 0 0 1 48.722 22.88 A 6.818 6.818 0 0 1 47.693 25.112 A 7.82 7.82 0 0 1 44.93 27.513 A 9.709 9.709 0 0 1 44.105 27.902 A 12.166 12.166 0 0 1 41.152 28.701 A 15.955 15.955 0 0 1 38.864 28.859 Q 35.954 28.859 33.562 28.082 A 15.229 15.229 0 0 1 31.423 27.212 A 11.333 11.333 0 0 1 29.537 26.029 Z M 98.694 26.029 L 100.607 22.84 Q 102.042 24.036 103.836 24.793 A 9.307 9.307 0 0 0 105.976 25.395 A 12.802 12.802 0 0 0 108.021 25.55 A 11.153 11.153 0 0 0 109.833 25.412 Q 110.799 25.253 111.581 24.91 A 5.461 5.461 0 0 0 112.565 24.355 Q 114.179 23.202 114.237 21.272 A 4.83 4.83 0 0 0 114.239 21.126 A 4.759 4.759 0 0 0 114.105 19.973 A 3.913 3.913 0 0 0 113.761 19.073 A 3.227 3.227 0 0 0 113.282 18.413 Q 112.776 17.863 111.921 17.328 A 10.438 10.438 0 0 0 111.907 17.319 A 12.797 12.797 0 0 0 110.921 16.77 Q 109.87 16.238 108.366 15.657 A 47.267 47.267 0 0 0 107.861 15.466 Q 105.83 14.676 104.378 13.876 A 15.743 15.743 0 0 1 103.278 13.214 Q 101.691 12.162 100.941 10.837 A 5.302 5.302 0 0 1 100.826 10.623 A 6.643 6.643 0 0 1 100.22 8.761 A 9.139 9.139 0 0 1 100.089 7.175 A 6.277 6.277 0 0 1 101.185 3.568 A 6.847 6.847 0 0 1 102.96 1.799 A 9.321 9.321 0 0 1 104.414 0.977 A 10.187 10.187 0 0 1 106.765 0.245 Q 107.815 0.046 109.014 0.009 A 18.028 18.028 0 0 1 109.575 0 A 21.084 21.084 0 0 1 111.922 0.125 A 15.72 15.72 0 0 1 114.02 0.498 Q 115.993 0.997 117.866 1.913 L 116.471 5.142 Q 115.116 4.345 113.302 3.807 Q 111.489 3.269 109.496 3.269 Q 106.865 3.269 105.35 4.305 A 3.947 3.947 0 0 0 104.488 5.088 A 2.933 2.933 0 0 0 103.836 6.976 Q 103.836 8.012 104.274 8.809 A 2.755 2.755 0 0 0 104.7 9.377 Q 105.148 9.847 105.905 10.303 A 9.368 9.368 0 0 0 106.008 10.364 A 13.155 13.155 0 0 0 106.891 10.831 Q 107.796 11.271 109.076 11.768 A 51.823 51.823 0 0 0 109.894 12.078 A 32.378 32.378 0 0 1 111.879 12.887 Q 112.848 13.322 113.646 13.774 A 14.152 14.152 0 0 1 114.817 14.509 A 10.381 10.381 0 0 1 116.029 15.497 Q 116.659 16.1 117.08 16.747 A 5.672 5.672 0 0 1 117.388 17.28 A 7.007 7.007 0 0 1 118.082 19.616 A 8.831 8.831 0 0 1 118.145 20.688 A 8.654 8.654 0 0 1 117.879 22.88 A 6.818 6.818 0 0 1 116.85 25.112 A 7.82 7.82 0 0 1 114.087 27.513 A 9.709 9.709 0 0 1 113.262 27.902 A 12.166 12.166 0 0 1 110.309 28.701 A 15.955 15.955 0 0 1 108.021 28.859 Q 105.111 28.859 102.719 28.082 A 15.229 15.229 0 0 1 100.58 27.212 A 11.333 11.333 0 0 1 98.694 26.029 Z M 85.341 27.185 L 81.793 28.859 L 78.325 21.285 Q 77.286 19.05 75.825 17.835 A 6.462 6.462 0 0 0 75.017 17.26 A 7.833 7.833 0 0 0 72.824 16.382 Q 71.518 16.064 69.915 16.064 L 69.317 16.064 L 69.317 28.381 L 65.53 28.381 L 65.53 0.558 A 98.813 98.813 0 0 1 68.598 0.315 A 86.012 86.012 0 0 1 69.576 0.259 A 74.913 74.913 0 0 1 72.094 0.174 A 90.191 90.191 0 0 1 73.701 0.16 A 20.091 20.091 0 0 1 76.508 0.342 Q 77.942 0.545 79.101 0.973 A 8.01 8.01 0 0 1 81.374 2.232 Q 83.94 4.301 83.945 7.56 A 8.206 8.206 0 0 1 83.945 7.574 A 7.924 7.924 0 0 1 83.686 9.654 A 5.848 5.848 0 0 1 82.212 12.257 Q 80.765 13.736 78.252 14.592 A 16.532 16.532 0 0 1 77.209 14.908 A 9.429 9.429 0 0 1 78.576 15.65 A 8.142 8.142 0 0 1 79.122 16.044 A 7.004 7.004 0 0 1 79.944 16.81 Q 80.297 17.194 80.639 17.662 A 11.677 11.677 0 0 1 80.737 17.798 Q 81.324 18.626 81.923 19.831 A 25.982 25.982 0 0 1 82.311 20.648 L 85.341 27.185 Z M 10.128 28.557 A 14.553 14.553 0 0 0 13.154 28.859 A 15.286 15.286 0 0 0 15.211 28.725 A 11.987 11.987 0 0 0 18.695 27.723 Q 21.126 26.587 22.84 24.614 A 13.01 13.01 0 0 0 23.368 23.965 A 13.845 13.845 0 0 0 25.451 20.01 Q 26.348 17.379 26.348 14.39 A 19.219 19.219 0 0 0 26.316 13.283 A 16.518 16.518 0 0 0 25.451 8.809 A 13.956 13.956 0 0 0 22.84 4.225 Q 21.126 2.232 18.675 1.116 A 11.928 11.928 0 0 0 16.326 0.334 A 14.517 14.517 0 0 0 13.154 0 Q 9.048 0 6.099 1.894 A 12.407 12.407 0 0 0 1.575 7.035 A 15.142 15.142 0 0 0 0.445 10.269 A 18.408 18.408 0 0 0 0 14.39 A 19.497 19.497 0 0 0 0.014 15.131 A 17.048 17.048 0 0 0 0.897 20.01 A 15.696 15.696 0 0 0 1.072 20.497 A 13.693 13.693 0 0 0 3.488 24.614 A 12.134 12.134 0 0 0 7.614 27.723 A 11.616 11.616 0 0 0 10.128 28.557 Z M 13.154 25.59 Q 16.223 25.59 18.296 24.115 A 8.957 8.957 0 0 0 21.216 20.58 A 10.862 10.862 0 0 0 21.425 20.11 A 13.595 13.595 0 0 0 22.351 16.55 A 17.341 17.341 0 0 0 22.481 14.39 Q 22.481 12.237 21.844 10.244 A 11.852 11.852 0 0 0 20.193 6.925 A 11.208 11.208 0 0 0 20.01 6.677 Q 18.814 5.102 17.08 4.185 A 7.941 7.941 0 0 0 14.124 3.316 A 9.797 9.797 0 0 0 13.154 3.269 A 9.601 9.601 0 0 0 10.566 3.604 A 7.791 7.791 0 0 0 8.152 4.744 A 9.227 9.227 0 0 0 5.122 8.382 A 11.075 11.075 0 0 0 4.963 8.73 A 13.071 13.071 0 0 0 3.985 12.392 A 16.445 16.445 0 0 0 3.867 14.39 A 14.116 14.116 0 0 0 4.485 18.555 A 11.711 11.711 0 0 0 6.151 21.961 A 11.131 11.131 0 0 0 6.298 22.162 Q 7.494 23.757 9.228 24.674 A 7.941 7.941 0 0 0 12.184 25.543 A 9.797 9.797 0 0 0 13.154 25.59 Z M 58.355 28.381 L 54.569 28.381 L 54.569 0.479 L 58.355 0.479 L 58.355 28.381 Z M 93.91 28.381 L 90.124 28.381 L 90.124 0.479 L 93.91 0.479 L 93.91 28.381 Z M 69.317 3.508 L 69.317 12.875 L 73.701 12.875 A 10.559 10.559 0 0 0 75.664 12.703 Q 77.23 12.407 78.365 11.599 A 4.101 4.101 0 0 0 80.121 8.6 A 5.784 5.784 0 0 0 80.159 7.932 A 3.911 3.911 0 0 0 78.854 4.957 A 5.29 5.29 0 0 0 78.485 4.644 A 5.55 5.55 0 0 0 76.745 3.758 Q 75.976 3.515 75.047 3.416 A 12.733 12.733 0 0 0 73.701 3.348 A 79.405 79.405 0 0 0 72.492 3.357 Q 71.923 3.366 71.414 3.383 A 47.479 47.479 0 0 0 71.27 3.388 Q 70.194 3.428 69.317 3.508 Z" vector-effect="non-scaling-stroke"/></g>
</svg>
